<?xml version="1.0" encoding="UTF-8"?>
<svg id="Layer_1" data-name="Layer 1" xmlns="http://www.w3.org/2000/svg" viewBox="0 0 1000 1000">
  <defs>
    <style>
      .cls-1 {
        fill: #ee305c;
      }
    </style>
  </defs>
  <path class="cls-1" d="M708.02,268.91c-.17,2.28-5.19,6.55-3.22,11.37,33.23-18.23,48.04-62.82,56.33-98,3.68-15.62,2.06-53.12,17.49-57.43,26.34-7.35,48.79,48.12,53.8,68.39,16.24,65.68,2.17,127.24-39.92,179.59,18.43,13.31,44.9,12.99,66.74,11.56,19.22-1.26,60.84-15.32,74.44-13.17,35.48,5.62-4.77,51.05-15.91,61.94-43.63,42.64-104.3,63.15-164.24,45.35,7.31,18.07,20.79,33,28.76,50.82,97.57,218.1-255.9,355.48-420.22,358.75-211.43,4.21-234.42-126.17-199.03-306.26,38.73-197.11,189-479.48,414.96-282.06-13.92-53.46,34.12-104.78,28.93-157.27-1.96-19.85-20.4-41.24,9.76-49.22,36.86,16.17,70.75,53.82,83.05,92.9,2.03,6.45,8.28,29.11,8.28,33.97,0,15.79,1.13,33.28,0,48.74ZM877,420.02h-66.62c-16.83,0-63.73-30.77-63.29-50.47.1-4.42,26.47-30.96,31.84-39.47,19.52-30.95,26.57-66.88,23.27-103.35-.32-3.51-5.46-33.02-9.66-27.68-6.57,44.08-40.84,107.55-86.33,120.03-57.57,15.79-33.68-43.45-33.64-76.16.03-26.58-9.37-64.3-29.52-82.86-12.99,79.96-60.19,123.03,1.55,198.27,46.34,56.47,125.63,112.23,201.09,80.77l31.3-19.07ZM418.11,268.16c-139.77,12.71-222.89,277.32-230.17,393.82-6.68,106.87,7.93,179.3,128.34,187.15,116.74,7.61,249.8-29.96,345.34-96.92,170.38-119.42,98.96-223.84-18.51-343.64-51.31-52.34-147.44-147.45-225-140.4Z"/>
  <path class="cls-1" d="M476.49,440.31c17.39,17.07-33.62,75.21-56.1,51.23-12.86-25.04,36.7-70.27,56.1-51.23Z"/>
  <path class="cls-1" d="M356.26,414.32c18.14,18.47-25.2,73.16-47.98,59.39-25.21-15.24,28.03-79.7,47.98-59.39Z"/>
  <path class="cls-1" d="M520.67,690.88c12.63-12.06,49.67-28.86,56.06-2.8.28,23.12-44.46,49.74-61.81,37.16-12.15-8.81-2.57-26.4,5.75-34.36Z"/>
  <path class="cls-1" d="M456.97,300.51c44.31-7.2,24.87,41.83-11.99,49.8-50.77,10.98-29.61-43.04,11.99-49.8Z"/>
  <path class="cls-1" d="M690.91,573.23c37.59-7.46,8.66,79.51-26.33,67.34-21.84-7.6,3.68-62.85,26.33-67.34Z"/>
  <path class="cls-1" d="M385.51,745.7c9.76-1.43,20.58-1.53,26.36,7.97,6.19,26.34-44.57,54.8-63.23,40.37-18.37-14.22,20.19-45.88,36.87-48.33Z"/>
  <path class="cls-1" d="M570.58,508.46c56.86-13.15,7.31,73.87-28.31,56.18-21.19-10.52,12.15-52.44,28.31-56.18Z"/>
  <path class="cls-1" d="M313.89,531.16c42.66-9.58,22.2,50.38-16.1,59-40.52,9.12-11.63-52.77,16.1-59Z"/>
  <path class="cls-1" d="M440.47,599.6c5.03-.17,11.83,2.87,13.55,7.81,10.26,23.55-34.92,65.64-54.93,51.65-18.9-13.21,17.98-58.67,41.38-59.46Z"/>
  <path class="cls-1" d="M268.46,667.48c38.77-7.76,8.58,76.16-22.84,67.32-26.4-7.43.04-62.76,22.84-67.32Z"/>
  <path class="cls-1" d="M570.58,368.7c7.91-1.84,18.04-2.25,24,3.88,18.5,23.07-53.17,77.63-58.82,42.39-2.78-17.38,18.97-42.57,34.81-46.26Z"/>
</svg>